<svg xmlns="http://www.w3.org/2000/svg" xmlns:xlink="http://www.w3.org/1999/xlink" width="500" zoomAndPan="magnify" viewBox="0 0 375 374.999991" height="500" preserveAspectRatio="xMidYMid meet" version="1.0"><defs><g/><clipPath id="dd4863eb40"><path d="M 295 126 L 332.855469 126 L 332.855469 230 L 295 230 Z M 295 126 " clip-rule="nonzero"/></clipPath></defs><rect x="-37.5" width="450" fill="#ffffff" y="-37.499999" height="449.999989" fill-opacity="1"/><rect x="-37.5" width="450" fill="#ffffff" y="-37.499999" height="449.999989" fill-opacity="1"/><g fill="#050a30" fill-opacity="1"><g transform="translate(77.724465, 181.847479)"><g><path d="M 12.640625 -3.390625 C 13.484375 -3.390625 14.273438 -3.539062 15.015625 -3.84375 C 15.753906 -4.15625 16.46875 -4.554688 17.15625 -5.046875 L 19.390625 -1.90625 C 18.546875 -1.195312 17.519531 -0.609375 16.3125 -0.140625 C 15.113281 0.328125 13.816406 0.5625 12.421875 0.5625 C 10.398438 0.5625 8.664062 0.140625 7.21875 -0.703125 C 5.78125 -1.546875 4.675781 -2.722656 3.90625 -4.234375 C 3.132812 -5.753906 2.75 -7.515625 2.75 -9.515625 C 2.75 -11.503906 3.140625 -13.273438 3.921875 -14.828125 C 4.710938 -16.378906 5.835938 -17.597656 7.296875 -18.484375 C 8.753906 -19.378906 10.492188 -19.828125 12.515625 -19.828125 C 13.910156 -19.828125 15.171875 -19.628906 16.296875 -19.234375 C 17.421875 -18.847656 18.445312 -18.265625 19.375 -17.484375 L 17.1875 -14.46875 C 16.488281 -14.945312 15.765625 -15.320312 15.015625 -15.59375 C 14.265625 -15.863281 13.476562 -16 12.65625 -16 C 11.25 -16 10.109375 -15.488281 9.234375 -14.46875 C 8.359375 -13.457031 7.921875 -11.804688 7.921875 -9.515625 C 7.921875 -8.015625 8.125 -6.8125 8.53125 -5.90625 C 8.945312 -5.007812 9.507812 -4.363281 10.21875 -3.96875 C 10.9375 -3.582031 11.742188 -3.390625 12.640625 -3.390625 Z M 12.640625 -3.390625 "/></g></g></g><g fill="#050a30" fill-opacity="1"><g transform="translate(95.69802, 181.847479)"><g><path d="M 10.9375 -19.828125 C 12.863281 -19.828125 14.492188 -19.410156 15.828125 -18.578125 C 17.171875 -17.742188 18.191406 -16.5625 18.890625 -15.03125 C 19.585938 -13.507812 19.9375 -11.726562 19.9375 -9.6875 C 19.9375 -7.59375 19.582031 -5.78125 18.875 -4.25 C 18.164062 -2.71875 17.140625 -1.53125 15.796875 -0.6875 C 14.460938 0.144531 12.835938 0.5625 10.921875 0.5625 C 9.003906 0.5625 7.367188 0.15625 6.015625 -0.65625 C 4.671875 -1.476562 3.644531 -2.65625 2.9375 -4.1875 C 2.238281 -5.71875 1.890625 -7.535156 1.890625 -9.640625 C 1.890625 -11.671875 2.242188 -13.445312 2.953125 -14.96875 C 3.660156 -16.5 4.6875 -17.691406 6.03125 -18.546875 C 7.382812 -19.398438 9.019531 -19.828125 10.9375 -19.828125 Z M 10.9375 -16.140625 C 9.613281 -16.140625 8.625 -15.617188 7.96875 -14.578125 C 7.3125 -13.535156 6.984375 -11.890625 6.984375 -9.640625 C 6.984375 -7.390625 7.304688 -5.738281 7.953125 -4.6875 C 8.609375 -3.644531 9.597656 -3.125 10.921875 -3.125 C 12.242188 -3.125 13.226562 -3.644531 13.875 -4.6875 C 14.519531 -5.738281 14.84375 -7.40625 14.84375 -9.6875 C 14.84375 -11.914062 14.519531 -13.546875 13.875 -14.578125 C 13.226562 -15.617188 12.25 -16.140625 10.9375 -16.140625 Z M 10.9375 -16.140625 "/></g></g></g><g fill="#050a30" fill-opacity="1"><g transform="translate(113.671575, 181.847479)"><g><path d="M 14.03125 -27.5 L 18.9375 -26.96875 L 18.9375 0 L 14.59375 0 L 14.296875 -2.25 C 13.710938 -1.414062 12.972656 -0.738281 12.078125 -0.21875 C 11.179688 0.300781 10.132812 0.5625 8.9375 0.5625 C 7.3125 0.5625 5.96875 0.132812 4.90625 -0.71875 C 3.851562 -1.570312 3.066406 -2.765625 2.546875 -4.296875 C 2.023438 -5.835938 1.765625 -7.625 1.765625 -9.65625 C 1.765625 -11.625 2.070312 -13.375 2.6875 -14.90625 C 3.300781 -16.445312 4.179688 -17.648438 5.328125 -18.515625 C 6.472656 -19.390625 7.832031 -19.828125 9.40625 -19.828125 C 10.34375 -19.828125 11.195312 -19.660156 11.96875 -19.328125 C 12.75 -19.003906 13.4375 -18.53125 14.03125 -17.90625 Z M 10.71875 -16.171875 C 9.539062 -16.171875 8.609375 -15.648438 7.921875 -14.609375 C 7.234375 -13.578125 6.890625 -11.921875 6.890625 -9.640625 C 6.890625 -8.023438 7.03125 -6.738281 7.3125 -5.78125 C 7.601562 -4.832031 8.007812 -4.148438 8.53125 -3.734375 C 9.050781 -3.328125 9.671875 -3.125 10.390625 -3.125 C 11.160156 -3.125 11.847656 -3.359375 12.453125 -3.828125 C 13.054688 -4.296875 13.582031 -4.890625 14.03125 -5.609375 L 14.03125 -14.3125 C 13.59375 -14.894531 13.101562 -15.347656 12.5625 -15.671875 C 12.019531 -16.003906 11.40625 -16.171875 10.71875 -16.171875 Z M 10.71875 -16.171875 "/></g></g></g><g fill="#050a30" fill-opacity="1"><g transform="translate(131.645132, 181.847479)"><g><path d="M 7.078125 -8.15625 C 7.179688 -6.96875 7.457031 -6.003906 7.90625 -5.265625 C 8.363281 -4.523438 8.945312 -3.984375 9.65625 -3.640625 C 10.363281 -3.296875 11.148438 -3.125 12.015625 -3.125 C 12.929688 -3.125 13.796875 -3.269531 14.609375 -3.5625 C 15.421875 -3.851562 16.222656 -4.253906 17.015625 -4.765625 L 19.046875 -1.984375 C 18.148438 -1.234375 17.078125 -0.617188 15.828125 -0.140625 C 14.578125 0.328125 13.203125 0.5625 11.703125 0.5625 C 9.585938 0.5625 7.8125 0.128906 6.375 -0.734375 C 4.945312 -1.597656 3.863281 -2.796875 3.125 -4.328125 C 2.394531 -5.859375 2.03125 -7.625 2.03125 -9.625 C 2.03125 -11.53125 2.390625 -13.253906 3.109375 -14.796875 C 3.828125 -16.347656 4.863281 -17.570312 6.21875 -18.46875 C 7.582031 -19.375 9.222656 -19.828125 11.140625 -19.828125 C 12.910156 -19.828125 14.441406 -19.4375 15.734375 -18.65625 C 17.035156 -17.882812 18.035156 -16.769531 18.734375 -15.3125 C 19.441406 -13.863281 19.796875 -12.117188 19.796875 -10.078125 C 19.796875 -9.753906 19.789062 -9.414062 19.78125 -9.0625 C 19.769531 -8.71875 19.742188 -8.414062 19.703125 -8.15625 Z M 11.15625 -16.390625 C 10 -16.390625 9.050781 -15.976562 8.3125 -15.15625 C 7.582031 -14.332031 7.148438 -13.035156 7.015625 -11.265625 L 15.03125 -11.265625 C 15.007812 -12.867188 14.675781 -14.125 14.03125 -15.03125 C 13.394531 -15.9375 12.4375 -16.390625 11.15625 -16.390625 Z M 11.15625 -16.390625 "/></g></g></g><g fill="#050a30" fill-opacity="1"><g transform="translate(149.618684, 181.847479)"><g><path d="M 21.859375 -25.171875 L 18.625 0 L 13.078125 0 L 10.921875 -18.296875 L 8.625 0 L 2.953125 0 L -0.015625 -25.171875 L 4.796875 -25.171875 L 6.21875 -4.578125 L 8.609375 -22.25 L 13.359375 -22.25 L 15.578125 -4.578125 L 17.375 -25.171875 Z M 21.859375 -25.171875 "/></g></g></g><g fill="#050a30" fill-opacity="1"><g transform="translate(167.592235, 181.847479)"><g><path d="M 14.046875 -19.265625 L 14.046875 -3.453125 L 19.109375 -3.453125 L 19.109375 0 L 3.53125 0 L 3.53125 -3.453125 L 9.140625 -3.453125 L 9.140625 -15.8125 L 3.71875 -15.8125 L 3.71875 -19.265625 Z M 10.90625 -29.046875 C 11.800781 -29.046875 12.523438 -28.765625 13.078125 -28.203125 C 13.640625 -27.640625 13.921875 -26.953125 13.921875 -26.140625 C 13.921875 -25.304688 13.640625 -24.609375 13.078125 -24.046875 C 12.523438 -23.492188 11.800781 -23.21875 10.90625 -23.21875 C 10 -23.21875 9.265625 -23.492188 8.703125 -24.046875 C 8.140625 -24.609375 7.859375 -25.304688 7.859375 -26.140625 C 7.859375 -26.953125 8.140625 -27.640625 8.703125 -28.203125 C 9.265625 -28.765625 10 -29.046875 10.90625 -29.046875 Z M 10.90625 -29.046875 "/></g></g></g><g fill="#050a30" fill-opacity="1"><g transform="translate(185.565787, 181.847479)"><g><path d="M 19.609375 -1.078125 C 18.878906 -0.609375 18.003906 -0.21875 16.984375 0.09375 C 15.960938 0.40625 14.847656 0.5625 13.640625 0.5625 C 11.265625 0.5625 9.484375 -0.0507812 8.296875 -1.28125 C 7.109375 -2.507812 6.515625 -4.148438 6.515625 -6.203125 L 6.515625 -15.796875 L 2.34375 -15.796875 L 2.34375 -19.265625 L 6.515625 -19.265625 L 6.515625 -23.515625 L 11.421875 -24.09375 L 11.421875 -19.265625 L 17.765625 -19.265625 L 17.265625 -15.796875 L 11.421875 -15.796875 L 11.421875 -6.21875 C 11.421875 -5.226562 11.65625 -4.503906 12.125 -4.046875 C 12.601562 -3.585938 13.378906 -3.359375 14.453125 -3.359375 C 15.140625 -3.359375 15.769531 -3.441406 16.34375 -3.609375 C 16.925781 -3.773438 17.453125 -3.984375 17.921875 -4.234375 Z M 19.609375 -1.078125 "/></g></g></g><g fill="#050a30" fill-opacity="1"><g transform="translate(203.539338, 181.847479)"><g><path d="M 7.8125 -27.4375 L 7.8125 -17.140625 C 8.59375 -18.046875 9.484375 -18.71875 10.484375 -19.15625 C 11.484375 -19.601562 12.523438 -19.828125 13.609375 -19.828125 C 15.378906 -19.828125 16.710938 -19.328125 17.609375 -18.328125 C 18.503906 -17.328125 18.953125 -15.914062 18.953125 -14.09375 L 18.953125 0 L 14.046875 0 L 14.046875 -12.984375 C 14.046875 -14.140625 13.875 -14.957031 13.53125 -15.4375 C 13.1875 -15.914062 12.585938 -16.15625 11.734375 -16.15625 C 11.222656 -16.15625 10.734375 -16.039062 10.265625 -15.8125 C 9.804688 -15.582031 9.367188 -15.269531 8.953125 -14.875 C 8.535156 -14.488281 8.15625 -14.050781 7.8125 -13.5625 L 7.8125 0 L 2.890625 0 L 2.890625 -26.953125 Z M 7.8125 -27.4375 "/></g></g></g><g fill="#050a30" fill-opacity="1"><g transform="translate(221.51289, 181.847479)"><g><path d="M 13.421875 -21.171875 L 13.421875 0 L 8.328125 0 L 8.328125 -21.171875 L 1.015625 -21.171875 L 1.015625 -25.171875 L 20.96875 -25.171875 L 20.4375 -21.171875 Z M 13.421875 -21.171875 "/></g></g></g><g fill="#050a30" fill-opacity="1"><g transform="translate(239.486442, 181.847479)"><g><path d="M 10.9375 -19.828125 C 12.863281 -19.828125 14.492188 -19.410156 15.828125 -18.578125 C 17.171875 -17.742188 18.191406 -16.5625 18.890625 -15.03125 C 19.585938 -13.507812 19.9375 -11.726562 19.9375 -9.6875 C 19.9375 -7.59375 19.582031 -5.78125 18.875 -4.25 C 18.164062 -2.71875 17.140625 -1.53125 15.796875 -0.6875 C 14.460938 0.144531 12.835938 0.5625 10.921875 0.5625 C 9.003906 0.5625 7.367188 0.15625 6.015625 -0.65625 C 4.671875 -1.476562 3.644531 -2.65625 2.9375 -4.1875 C 2.238281 -5.71875 1.890625 -7.535156 1.890625 -9.640625 C 1.890625 -11.671875 2.242188 -13.445312 2.953125 -14.96875 C 3.660156 -16.5 4.6875 -17.691406 6.03125 -18.546875 C 7.382812 -19.398438 9.019531 -19.828125 10.9375 -19.828125 Z M 10.9375 -16.140625 C 9.613281 -16.140625 8.625 -15.617188 7.96875 -14.578125 C 7.3125 -13.535156 6.984375 -11.890625 6.984375 -9.640625 C 6.984375 -7.390625 7.304688 -5.738281 7.953125 -4.6875 C 8.609375 -3.644531 9.597656 -3.125 10.921875 -3.125 C 12.242188 -3.125 13.226562 -3.644531 13.875 -4.6875 C 14.519531 -5.738281 14.84375 -7.40625 14.84375 -9.6875 C 14.84375 -11.914062 14.519531 -13.546875 13.875 -14.578125 C 13.226562 -15.617188 12.25 -16.140625 10.9375 -16.140625 Z M 10.9375 -16.140625 "/></g></g></g><g fill="#050a30" fill-opacity="1"><g transform="translate(257.459993, 181.847479)"><g><path d="M 2.890625 0 L 2.890625 -19.265625 L 7.171875 -19.265625 L 7.515625 -16.90625 C 8.347656 -17.875 9.273438 -18.601562 10.296875 -19.09375 C 11.316406 -19.582031 12.421875 -19.828125 13.609375 -19.828125 C 15.328125 -19.828125 16.644531 -19.328125 17.5625 -18.328125 C 18.488281 -17.328125 18.953125 -15.914062 18.953125 -14.09375 L 18.953125 0 L 14.046875 0 L 14.046875 -12.265625 C 14.046875 -13.210938 13.984375 -13.972656 13.859375 -14.546875 C 13.742188 -15.117188 13.519531 -15.53125 13.1875 -15.78125 C 12.851562 -16.03125 12.367188 -16.15625 11.734375 -16.15625 C 11.222656 -16.15625 10.734375 -16.046875 10.265625 -15.828125 C 9.804688 -15.609375 9.367188 -15.304688 8.953125 -14.921875 C 8.535156 -14.546875 8.15625 -14.117188 7.8125 -13.640625 L 7.8125 0 Z M 2.890625 0 "/></g></g></g><g fill="#050a30" fill-opacity="1"><g transform="translate(275.433545, 181.847479)"><g><path d="M 14.046875 -19.265625 L 14.046875 -3.453125 L 19.109375 -3.453125 L 19.109375 0 L 3.53125 0 L 3.53125 -3.453125 L 9.140625 -3.453125 L 9.140625 -15.8125 L 3.71875 -15.8125 L 3.71875 -19.265625 Z M 10.90625 -29.046875 C 11.800781 -29.046875 12.523438 -28.765625 13.078125 -28.203125 C 13.640625 -27.640625 13.921875 -26.953125 13.921875 -26.140625 C 13.921875 -25.304688 13.640625 -24.609375 13.078125 -24.046875 C 12.523438 -23.492188 11.800781 -23.21875 10.90625 -23.21875 C 10 -23.21875 9.265625 -23.492188 8.703125 -24.046875 C 8.140625 -24.609375 7.859375 -25.304688 7.859375 -26.140625 C 7.859375 -26.953125 8.140625 -27.640625 8.703125 -28.203125 C 9.265625 -28.765625 10 -29.046875 10.90625 -29.046875 Z M 10.90625 -29.046875 "/></g></g></g><path fill="#050a30" d="M 78.921875 226.171875 C 74.132812 225.601562 68.605469 227.480469 64.210938 224.835938 C 59.941406 222.261719 60.371094 216.179688 60.570312 211.890625 C 61.011719 202.199219 63.34375 190.59375 56.664062 182.34375 C 55.078125 180.386719 53.070312 178.800781 50.824219 177.804688 C 52.269531 177.039062 53.605469 176.035156 54.769531 174.882812 C 58.179688 171.496094 60.046875 166.925781 60.785156 162.226562 C 61.613281 156.929688 61.085938 151.589844 60.695312 146.277344 C 60.492188 143.539062 60.328125 140.792969 60.449219 138.050781 C 60.539062 136.066406 60.773438 133.695312 62.15625 132.144531 C 63.765625 130.347656 66.503906 129.894531 68.792969 129.839844 C 71.871094 129.769531 74.914062 130.25 77.992188 129.882812 C 79.203125 129.742188 80.234375 126.742188 78.542969 126.945312 C 73.71875 127.519531 68.757812 125.917969 64.144531 128.03125 C 59.710938 130.066406 58.292969 134.847656 58.089844 139.359375 C 57.847656 144.867188 58.71875 150.339844 58.859375 155.835938 C 58.984375 160.683594 58.558594 165.851562 56.03125 170.113281 C 53.597656 174.222656 48.898438 177.007812 44.070312 176.332031 C 43.027344 176.1875 41.929688 178.226562 42.4375 179.023438 C 42.464844 179.484375 42.722656 179.808594 43.316406 179.722656 C 47.675781 179.117188 51.945312 181.496094 54.632812 184.8125 C 57.742188 188.652344 58.769531 193.710938 58.9375 198.539062 C 59.128906 203.933594 58.289062 209.296875 58.15625 214.679688 C 58.046875 219.042969 58.121094 224.476562 62.03125 227.308594 C 66.597656 230.617188 72.644531 228.546875 77.789062 229.160156 C 79.050781 229.316406 80.371094 226.347656 78.921875 226.171875 Z M 78.921875 226.171875 " fill-opacity="1" fill-rule="nonzero"/><g clip-path="url(#dd4863eb40)"><path fill="#050a30" d="M 296.066406 226.171875 C 300.855469 225.601562 306.382812 227.480469 310.777344 224.835938 C 315.050781 222.261719 314.617188 216.179688 314.417969 211.890625 C 313.976562 202.199219 311.644531 190.59375 318.324219 182.34375 C 319.910156 180.386719 321.917969 178.800781 324.167969 177.804688 C 322.71875 177.039062 321.382812 176.035156 320.21875 174.882812 C 316.808594 171.496094 314.941406 166.925781 314.203125 162.226562 C 313.375 156.929688 313.902344 151.589844 314.292969 146.277344 C 314.496094 143.539062 314.660156 140.792969 314.539062 138.050781 C 314.449219 136.066406 314.214844 133.695312 312.832031 132.144531 C 311.222656 130.347656 308.484375 129.894531 306.195312 129.839844 C 303.117188 129.769531 300.074219 130.25 296.996094 129.882812 C 295.785156 129.742188 294.753906 126.742188 296.445312 126.945312 C 301.269531 127.519531 306.230469 125.917969 310.84375 128.03125 C 315.277344 130.066406 316.695312 134.847656 316.898438 139.359375 C 317.140625 144.867188 316.269531 150.339844 316.128906 155.835938 C 316.003906 160.683594 316.433594 165.851562 318.957031 170.113281 C 321.390625 174.222656 326.089844 177.007812 330.917969 176.332031 C 331.960938 176.1875 333.058594 178.226562 332.550781 179.023438 C 332.523438 179.484375 332.265625 179.808594 331.671875 179.722656 C 327.3125 179.117188 323.042969 181.496094 320.355469 184.8125 C 317.25 188.652344 316.21875 193.710938 316.050781 198.539062 C 315.859375 203.933594 316.699219 209.296875 316.832031 214.679688 C 316.941406 219.042969 316.867188 224.476562 312.957031 227.308594 C 308.390625 230.617188 302.34375 228.546875 297.199219 229.160156 C 295.9375 229.316406 294.617188 226.347656 296.066406 226.171875 Z M 296.066406 226.171875 " fill-opacity="1" fill-rule="nonzero"/></g><g fill="#050a30" fill-opacity="1"><g transform="translate(150.336376, 205.61795)"><g><path d="M 7.859375 -7.8125 C 7.859375 -8.445312 7.726562 -8.945312 7.46875 -9.3125 C 7.21875 -9.675781 6.878906 -9.9375 6.453125 -10.09375 C 6.023438 -10.25 5.550781 -10.328125 5.03125 -10.328125 L 3.1875 -10.328125 L 3.1875 -5.203125 L 4.921875 -5.203125 C 5.472656 -5.203125 5.96875 -5.273438 6.40625 -5.421875 C 6.851562 -5.566406 7.207031 -5.828125 7.46875 -6.203125 C 7.726562 -6.578125 7.859375 -7.113281 7.859375 -7.8125 Z M 9 -7.84375 C 9 -6.957031 8.8125 -6.253906 8.4375 -5.734375 C 8.070312 -5.222656 7.5625 -4.851562 6.90625 -4.625 C 6.257812 -4.40625 5.519531 -4.296875 4.6875 -4.296875 L 3.1875 -4.296875 L 3.1875 0 L 2.140625 0 L 2.140625 -11.21875 L 4.8125 -11.21875 C 6.09375 -11.21875 7.109375 -10.941406 7.859375 -10.390625 C 8.617188 -9.847656 9 -9 9 -7.84375 Z M 9 -7.84375 "/></g></g></g><g fill="#050a30" fill-opacity="1"><g transform="translate(158.400879, 205.61795)"><g><path d="M 4.921875 -8.734375 C 5.703125 -8.734375 6.351562 -8.550781 6.875 -8.1875 C 7.40625 -7.820312 7.796875 -7.304688 8.046875 -6.640625 C 8.304688 -5.972656 8.4375 -5.1875 8.4375 -4.28125 C 8.4375 -3.4375 8.300781 -2.675781 8.03125 -2 C 7.769531 -1.332031 7.375 -0.804688 6.84375 -0.421875 C 6.320312 -0.0351562 5.675781 0.15625 4.90625 0.15625 C 4.113281 0.15625 3.453125 -0.0234375 2.921875 -0.390625 C 2.398438 -0.765625 2.007812 -1.285156 1.75 -1.953125 C 1.488281 -2.617188 1.359375 -3.390625 1.359375 -4.265625 C 1.359375 -5.140625 1.488281 -5.910156 1.75 -6.578125 C 2.019531 -7.253906 2.421875 -7.78125 2.953125 -8.15625 C 3.484375 -8.539062 4.140625 -8.734375 4.921875 -8.734375 Z M 4.921875 -7.84375 C 4.117188 -7.84375 3.507812 -7.550781 3.09375 -6.96875 C 2.675781 -6.382812 2.46875 -5.484375 2.46875 -4.265625 C 2.46875 -3.078125 2.671875 -2.191406 3.078125 -1.609375 C 3.484375 -1.023438 4.09375 -0.734375 4.90625 -0.734375 C 5.707031 -0.734375 6.3125 -1.023438 6.71875 -1.609375 C 7.125 -2.191406 7.328125 -3.082031 7.328125 -4.28125 C 7.328125 -5.488281 7.125 -6.382812 6.71875 -6.96875 C 6.3125 -7.550781 5.710938 -7.84375 4.921875 -7.84375 Z M 4.921875 -7.84375 "/></g></g></g><g fill="#050a30" fill-opacity="1"><g transform="translate(166.465382, 205.61795)"><g><path d="M 1.875 0 L 1.875 -0.84375 L 3.265625 -0.84375 L 3.265625 -7.71875 L 1.875 -7.71875 L 1.875 -8.578125 L 4.046875 -8.578125 L 4.234375 -6.515625 C 4.566406 -7.210938 4.96875 -7.757812 5.4375 -8.15625 C 5.90625 -8.550781 6.539062 -8.75 7.34375 -8.75 C 7.570312 -8.75 7.773438 -8.726562 7.953125 -8.6875 C 8.128906 -8.65625 8.3125 -8.617188 8.5 -8.578125 L 8.21875 -7.609375 C 8.03125 -7.671875 7.863281 -7.710938 7.71875 -7.734375 C 7.570312 -7.753906 7.40625 -7.765625 7.21875 -7.765625 C 6.53125 -7.765625 5.941406 -7.53125 5.453125 -7.0625 C 4.972656 -6.59375 4.582031 -5.847656 4.28125 -4.828125 L 4.28125 -0.84375 L 6.046875 -0.84375 L 6.046875 0 Z M 7.40625 -5.875 L 7.40625 -7.546875 L 7.484375 -8.578125 L 8.5 -8.578125 L 8.390625 -5.875 Z M 7.40625 -5.875 "/></g></g></g><g fill="#050a30" fill-opacity="1"><g transform="translate(174.529885, 205.61795)"><g><path d="M 8.328125 -0.40625 C 8.046875 -0.21875 7.703125 -0.078125 7.296875 0.015625 C 6.890625 0.109375 6.519531 0.15625 6.1875 0.15625 C 5.320312 0.15625 4.644531 -0.0664062 4.15625 -0.515625 C 3.664062 -0.972656 3.421875 -1.550781 3.421875 -2.25 L 3.421875 -7.71875 L 1.40625 -7.71875 L 1.40625 -8.578125 L 3.421875 -8.578125 L 3.421875 -10.546875 L 4.4375 -10.671875 L 4.4375 -8.578125 L 7.46875 -8.578125 L 7.328125 -7.71875 L 4.4375 -7.71875 L 4.4375 -2.265625 C 4.4375 -1.773438 4.570312 -1.394531 4.84375 -1.125 C 5.113281 -0.851562 5.566406 -0.71875 6.203125 -0.71875 C 6.523438 -0.71875 6.828125 -0.753906 7.109375 -0.828125 C 7.390625 -0.910156 7.648438 -1.015625 7.890625 -1.140625 Z M 8.328125 -0.40625 "/></g></g></g><g fill="#050a30" fill-opacity="1"><g transform="translate(182.594389, 205.61795)"><g><path d="M 6.734375 -12.1875 C 7.148438 -12.1875 7.53125 -12.144531 7.875 -12.0625 C 8.21875 -11.988281 8.550781 -11.878906 8.875 -11.734375 L 8.5 -10.921875 C 8.238281 -11.046875 7.953125 -11.140625 7.640625 -11.203125 C 7.328125 -11.265625 7.003906 -11.296875 6.671875 -11.296875 C 6.046875 -11.296875 5.566406 -11.171875 5.234375 -10.921875 C 4.910156 -10.671875 4.75 -10.289062 4.75 -9.78125 L 4.75 -7.875 L 7.703125 -7.875 L 7.59375 -7 L 4.75 -7 L 4.75 0 L 3.734375 0 L 3.734375 -7 L 1.609375 -7 L 1.609375 -7.875 L 3.734375 -7.875 L 3.734375 -9.71875 C 3.734375 -10.238281 3.867188 -10.679688 4.140625 -11.046875 C 4.421875 -11.410156 4.785156 -11.691406 5.234375 -11.890625 C 5.691406 -12.085938 6.191406 -12.1875 6.734375 -12.1875 Z M 6.734375 -12.1875 "/></g></g></g><g fill="#050a30" fill-opacity="1"><g transform="translate(190.658893, 205.61795)"><g><path d="M 4.921875 -8.734375 C 5.703125 -8.734375 6.351562 -8.550781 6.875 -8.1875 C 7.40625 -7.820312 7.796875 -7.304688 8.046875 -6.640625 C 8.304688 -5.972656 8.4375 -5.1875 8.4375 -4.28125 C 8.4375 -3.4375 8.300781 -2.675781 8.03125 -2 C 7.769531 -1.332031 7.375 -0.804688 6.84375 -0.421875 C 6.320312 -0.0351562 5.675781 0.15625 4.90625 0.15625 C 4.113281 0.15625 3.453125 -0.0234375 2.921875 -0.390625 C 2.398438 -0.765625 2.007812 -1.285156 1.75 -1.953125 C 1.488281 -2.617188 1.359375 -3.390625 1.359375 -4.265625 C 1.359375 -5.140625 1.488281 -5.910156 1.75 -6.578125 C 2.019531 -7.253906 2.421875 -7.78125 2.953125 -8.15625 C 3.484375 -8.539062 4.140625 -8.734375 4.921875 -8.734375 Z M 4.921875 -7.84375 C 4.117188 -7.84375 3.507812 -7.550781 3.09375 -6.96875 C 2.675781 -6.382812 2.46875 -5.484375 2.46875 -4.265625 C 2.46875 -3.078125 2.671875 -2.191406 3.078125 -1.609375 C 3.484375 -1.023438 4.09375 -0.734375 4.90625 -0.734375 C 5.707031 -0.734375 6.3125 -1.023438 6.71875 -1.609375 C 7.125 -2.191406 7.328125 -3.082031 7.328125 -4.28125 C 7.328125 -5.488281 7.125 -6.382812 6.71875 -6.96875 C 6.3125 -7.550781 5.710938 -7.84375 4.921875 -7.84375 Z M 4.921875 -7.84375 "/></g></g></g><g fill="#050a30" fill-opacity="1"><g transform="translate(198.723397, 205.61795)"><g><path d="M 4.78125 -12.046875 L 4.78125 -1.9375 C 4.78125 -1.5 4.921875 -1.1875 5.203125 -1 C 5.492188 -0.8125 5.859375 -0.71875 6.296875 -0.71875 C 6.566406 -0.71875 6.820312 -0.742188 7.0625 -0.796875 C 7.300781 -0.847656 7.550781 -0.925781 7.8125 -1.03125 L 8.09375 -0.25 C 7.882812 -0.144531 7.613281 -0.0507812 7.28125 0.03125 C 6.957031 0.113281 6.597656 0.15625 6.203125 0.15625 C 5.523438 0.15625 4.945312 -0.0234375 4.46875 -0.390625 C 4 -0.753906 3.765625 -1.269531 3.765625 -1.9375 L 3.765625 -11.15625 L 1.109375 -11.15625 L 1.109375 -12.046875 Z M 4.78125 -12.046875 "/></g></g></g><g fill="#050a30" fill-opacity="1"><g transform="translate(206.787902, 205.61795)"><g><path d="M 5.859375 -8.578125 L 5.859375 -0.875 L 8.359375 -0.875 L 8.359375 0 L 2.140625 0 L 2.140625 -0.875 L 4.84375 -0.875 L 4.84375 -7.6875 L 2.21875 -7.6875 L 2.21875 -8.578125 Z M 4.90625 -12.453125 C 5.164062 -12.453125 5.367188 -12.375 5.515625 -12.21875 C 5.671875 -12.0625 5.75 -11.867188 5.75 -11.640625 C 5.75 -11.398438 5.671875 -11.195312 5.515625 -11.03125 C 5.367188 -10.875 5.164062 -10.796875 4.90625 -10.796875 C 4.664062 -10.796875 4.46875 -10.875 4.3125 -11.03125 C 4.15625 -11.195312 4.078125 -11.398438 4.078125 -11.640625 C 4.078125 -11.867188 4.15625 -12.0625 4.3125 -12.21875 C 4.46875 -12.375 4.664062 -12.453125 4.90625 -12.453125 Z M 4.90625 -12.453125 "/></g></g></g><g fill="#050a30" fill-opacity="1"><g transform="translate(214.852402, 205.61795)"><g><path d="M 4.921875 -8.734375 C 5.703125 -8.734375 6.351562 -8.550781 6.875 -8.1875 C 7.40625 -7.820312 7.796875 -7.304688 8.046875 -6.640625 C 8.304688 -5.972656 8.4375 -5.1875 8.4375 -4.28125 C 8.4375 -3.4375 8.300781 -2.675781 8.03125 -2 C 7.769531 -1.332031 7.375 -0.804688 6.84375 -0.421875 C 6.320312 -0.0351562 5.675781 0.15625 4.90625 0.15625 C 4.113281 0.15625 3.453125 -0.0234375 2.921875 -0.390625 C 2.398438 -0.765625 2.007812 -1.285156 1.75 -1.953125 C 1.488281 -2.617188 1.359375 -3.390625 1.359375 -4.265625 C 1.359375 -5.140625 1.488281 -5.910156 1.75 -6.578125 C 2.019531 -7.253906 2.421875 -7.78125 2.953125 -8.15625 C 3.484375 -8.539062 4.140625 -8.734375 4.921875 -8.734375 Z M 4.921875 -7.84375 C 4.117188 -7.84375 3.507812 -7.550781 3.09375 -6.96875 C 2.675781 -6.382812 2.46875 -5.484375 2.46875 -4.265625 C 2.46875 -3.078125 2.671875 -2.191406 3.078125 -1.609375 C 3.484375 -1.023438 4.09375 -0.734375 4.90625 -0.734375 C 5.707031 -0.734375 6.3125 -1.023438 6.71875 -1.609375 C 7.125 -2.191406 7.328125 -3.082031 7.328125 -4.28125 C 7.328125 -5.488281 7.125 -6.382812 6.71875 -6.96875 C 6.3125 -7.550781 5.710938 -7.84375 4.921875 -7.84375 Z M 4.921875 -7.84375 "/></g></g></g></svg>